<svg width="40" height="40" viewBox="0 0 40 40" fill="none" xmlns="http://www.w3.org/2000/svg">
<path d="M35 0H5C2.2425 0 0 2.2425 0 5V35C0 37.7575 2.2425 40 5 40H35C37.7575 40 40 37.7575 40 35V5C40 2.2425 37.7575 0 35 0Z" fill="#7368FE"/>
<path fill-rule="evenodd" clip-rule="evenodd" d="M25.2878 17.7247H22.0096V15.1309C22.0096 14.415 22.5971 14.4824 23.3209 14.4824H24.6322V11.2402H22.0096C20.9663 11.2402 19.9657 11.6501 19.2279 12.3798C18.4902 13.1094 18.0757 14.099 18.0757 15.1309V17.7247H15.4531V20.9669H18.0757V28.0997H22.0096V20.9669H23.9765L25.2878 17.7247Z" fill="white"/>
</svg>
