<svg width="40" height="41" viewBox="0 0 40 41" fill="none" xmlns="http://www.w3.org/2000/svg">
<path d="M40 35.0233C40 36.5215 39.4147 37.9584 38.3728 39.0177C37.3309 40.0771 35.9179 40.6723 34.4444 40.6723H5.55556C4.08213 40.6723 2.66905 40.0771 1.62718 39.0177C0.585316 37.9584 0 36.5215 0 35.0233V5.64893C0 4.15074 0.585316 2.71391 1.62718 1.65453C2.66905 0.595153 4.08213 0 5.55556 0H34.4444C35.9179 0 37.3309 0.595153 38.3728 1.65453C39.4147 2.71391 40 4.15074 40 5.64893V35.0233Z" fill="#A9A8BE"/>
<path d="M27.7241 15.7197C27.1561 15.9843 26.4368 16.2327 25.7923 16.3152C26.4478 15.9065 27.4878 15.0552 27.7241 14.2852C27.1117 14.6634 26.0041 15.0674 25.2816 15.2136C24.7046 14.5707 23.8817 14.2852 22.9699 14.2852C21.2184 14.2852 19.9968 15.8449 19.9968 17.6686V19.022C17.421 19.022 14.9097 16.9601 13.3468 14.9618C13.0643 15.4655 12.9159 16.0398 12.9173 16.6245C12.9173 17.8554 13.9934 19.1046 14.8453 19.6987C14.3256 19.6818 13.3417 19.2649 12.9135 19.022V19.0606C12.9135 20.6623 13.9831 21.7497 15.4326 22.0529C15.1679 22.1294 14.8453 22.4055 13.6038 22.4055C14.0069 23.7149 16.0334 24.4071 17.421 24.4355C16.3354 25.32 14.3997 25.7889 12.9135 25.7889C12.6565 25.7889 12.5174 25.8038 12.2695 25.7734C13.672 26.7072 15.6309 27.1423 17.421 27.1423C23.2532 27.1423 26.4362 22.4609 26.4362 18.0949C26.4362 17.9515 26.4317 17.471 26.4246 17.3303C27.0479 16.8688 27.3004 16.3856 27.7241 15.7197Z" fill="white"/>
</svg>
