<svg width="40" height="41" viewBox="0 0 40 41" fill="none" xmlns="http://www.w3.org/2000/svg">
<path d="M40 35.0233C40 36.5215 39.4147 37.9584 38.3728 39.0177C37.3309 40.0771 35.9179 40.6723 34.4444 40.6723H5.55556C4.08213 40.6723 2.66905 40.0771 1.62718 39.0177C0.585316 37.9584 0 36.5215 0 35.0233V5.64893C0 4.15074 0.585316 2.71391 1.62718 1.65453C2.66905 0.595153 4.08213 0 5.55556 0H34.4444C35.9179 0 37.3309 0.595153 38.3728 1.65453C39.4147 2.71391 40 4.15074 40 5.64893V35.0233Z" fill="#A9A8BE"/>
<path d="M15.3271 17.3021H12.1264V26.6752H15.3271V17.3021Z" fill="white"/>
<path d="M14.789 12.9278C14.484 12.7431 14.1255 12.6445 13.7588 12.6445C13.5141 12.6445 13.2718 12.6884 13.0459 12.7737C12.82 12.859 12.6148 12.9839 12.4423 13.1414C12.2698 13.2989 12.1333 13.4858 12.0406 13.6913C11.9479 13.8969 11.901 14.117 11.9024 14.3391C11.9045 14.6719 12.0151 14.9967 12.2204 15.2725C12.4257 15.5483 12.7163 15.7627 13.0557 15.8887C13.3951 16.0148 13.768 16.0468 14.1274 15.9807C14.4868 15.9146 14.8166 15.7533 15.0752 15.5173C15.3337 15.2813 15.5095 14.9811 15.5802 14.6545C15.651 14.328 15.6136 13.9897 15.4728 13.6824C15.332 13.3751 15.094 13.1125 14.789 12.9278Z" fill="white"/>
<path d="M20.4648 17.3016H17.3815L17.3708 26.6941H20.5715V22.056C20.5715 20.8359 20.8275 19.6546 22.4919 19.6546C24.1562 19.6546 24.1562 21.0586 24.1562 22.1431V26.6748H27.3569V21.5331C27.3569 19.0058 26.7061 17.0692 23.5054 17.0692C22.8954 17.0475 22.2903 17.1766 21.7548 17.4426C21.2193 17.7087 20.7734 18.1017 20.4648 18.5797V17.3016Z" fill="white"/>
</svg>
