<svg width="100" height="100" viewBox="0 0 100 100" fill="none" xmlns="http://www.w3.org/2000/svg">
<path d="M50 97.6405C76.5097 97.6405 98 76.4166 98 50.2355C98 24.0545 76.5097 2.83057 50 2.83057C23.4903 2.83057 2 24.0545 2 50.2355C2 76.4166 23.4903 97.6405 50 97.6405Z" fill="white" fill-opacity="0.5"/>
<path d="M50 92.7024C73.7482 92.7024 93 73.6893 93 50.2355C93 26.7817 73.7482 7.76855 50 7.76855C26.2518 7.76855 7 26.7817 7 50.2355C7 73.6893 26.2518 92.7024 50 92.7024Z" fill="#7368FE"/>
<path fill-rule="evenodd" clip-rule="evenodd" d="M73.3613 50.2355L38 74.9256V25.5454L73.3613 50.2355Z" fill="white"/>
</svg>
